<svg width="17" height="18" viewBox="0 0 17 18" fill="none" xmlns="http://www.w3.org/2000/svg">
<g clip-path="url(#clip0_2_276)">
<path d="M14.6932 4.23672H12.1331V1.12279C12.1331 0.779424 11.8545 0.5 11.5103 0.5H6.41637C6.26067 0.5 6.11079 0.558957 5.99578 0.664L1.88622 4.42646C1.75751 4.54479 1.68402 4.71211 1.68402 4.88566V13.1405C1.68402 13.4834 1.96261 13.7633 2.30681 13.7633H4.86688V16.8772C4.86688 17.2202 5.14547 17.5 5.48966 17.5H14.6928C15.037 17.5 15.3156 17.2202 15.3156 16.8772V4.85951C15.316 4.51614 15.037 4.23672 14.6932 4.23672ZM5.94471 2.39991V4.71419H3.41661L5.94471 2.39991ZM2.93001 12.5177V5.95976H6.5675C6.91169 5.95976 7.19029 5.68075 7.19029 5.33698V1.74557H10.8876V4.23672H9.59881C9.44311 4.23672 9.29364 4.29609 9.17822 4.40114L5.06907 8.16401C4.94036 8.28151 4.86688 8.44925 4.86688 8.6228V12.5177H2.93001ZM9.12757 6.13663V8.45008H6.60071L9.12757 6.13663ZM14.0704 16.2544H6.11286V9.69565H9.75077C10.0945 9.69565 10.3736 9.41665 10.3736 9.07287V5.48229H14.0704V16.2544Z" fill="#201F1F"/>
</g>
<defs>
<clipPath id="clip0_2_276">
<rect width="17" height="17" fill="white" transform="translate(0 0.5)"/>
</clipPath>
</defs>
</svg>
