<svg width="22" height="22" viewBox="0 0 22 22" fill="none" xmlns="http://www.w3.org/2000/svg">
<circle cx="11" cy="11" r="11" fill="white"/>
<path d="M3.92773 11.5977L8.27539 13.1699V15.0225L2.36914 12.5205V11.208L3.92773 11.5977ZM8.27539 10.3125L3.9209 11.9121L2.36914 12.2812V10.9688L8.27539 8.4668V10.3125ZM12.124 6.04688L11.8984 12.958H10.2578L10.0254 6.04688H12.124ZM9.9707 15.0977C9.9707 14.806 10.071 14.5645 10.2715 14.373C10.4766 14.1771 10.7454 14.0791 11.0781 14.0791C11.4154 14.0791 11.6842 14.1771 11.8848 14.373C12.0853 14.5645 12.1855 14.806 12.1855 15.0977C12.1855 15.3802 12.0853 15.6195 11.8848 15.8154C11.6842 16.0114 11.4154 16.1094 11.0781 16.1094C10.7454 16.1094 10.4766 16.0114 10.2715 15.8154C10.071 15.6195 9.9707 15.3802 9.9707 15.0977ZM18.1191 11.8711L13.7373 10.3057V8.4668L19.6914 10.9688V12.2881L18.1191 11.8711ZM13.7373 13.1836L18.126 11.584L19.6914 11.208V12.5205L13.7373 15.0225V13.1836Z" fill="black"/>
</svg>
